<?xml version="1.0" standalone="no"?>
<!DOCTYPE svg PUBLIC "-//W3C//DTD SVG 20010904//EN"
 "http://www.w3.org/TR/2001/REC-SVG-20010904/DTD/svg10.dtd">
<svg version="1.0" xmlns="http://www.w3.org/2000/svg"
 width="260.000000pt" height="260.000000pt" viewBox="0 0 260.000000 260.000000"
 preserveAspectRatio="xMidYMid meet">
<metadata>
Created by potrace 1.11, written by Peter Selinger 2001-2013
</metadata>
<g transform="translate(0.000000,260.000000) scale(0.100000,-0.100000)"
fill="#000000" stroke="none">
<path d="M975 2530 c-28 -14 -58 -19 -100 -18 -53 1 -72 -5 -166 -50 -101 -48
-121 -64 -173 -137 -10 -15 -33 -33 -50 -40 -41 -17 -69 -49 -94 -106 -13 -32
-34 -56 -65 -78 -64 -44 -87 -76 -87 -123 0 -22 -7 -66 -15 -99 -9 -32 -16
-98 -18 -147 -2 -86 -1 -91 40 -174 60 -120 94 -148 237 -194 l114 -36 63 21
c68 23 177 28 210 11 26 -14 55 -75 84 -174 13 -45 44 -125 69 -177 57 -120
63 -153 40 -221 -25 -74 -22 -141 10 -215 14 -34 30 -91 35 -126 10 -71 24
-103 70 -161 22 -27 31 -50 31 -75 0 -44 28 -106 64 -144 26 -28 29 -29 116
-25 86 3 90 4 151 47 34 24 81 50 103 56 36 11 45 20 82 85 22 40 56 92 76
115 21 23 40 55 44 71 16 65 46 114 129 214 111 134 118 150 94 204 -14 32
-19 66 -19 150 l0 109 48 43 c26 24 73 61 103 82 71 49 123 128 148 220 10 40
29 84 41 97 35 37 24 73 -31 106 -66 38 -87 43 -129 29 -34 -11 -43 -10 -85
11 -58 29 -95 70 -140 157 -20 37 -56 96 -81 132 -48 70 -74 140 -74 202 0 75
-56 138 -122 138 -58 0 -146 20 -201 45 -41 20 -68 25 -132 25 -93 0 -160 26
-210 80 -27 30 -136 90 -160 90 -5 -1 -28 -9 -50 -20z m11 -196 c32 -19 73
-48 89 -63 43 -41 101 -74 170 -100 33 -12 90 -42 126 -67 92 -61 115 -124 58
-151 -41 -20 -159 26 -227 88 -30 27 -59 49 -66 49 -7 0 -23 12 -37 26 -26 29
-88 59 -192 93 -106 36 -129 98 -50 139 53 27 62 26 129 -14z m-209 -193 c48
-32 173 -103 276 -157 199 -105 287 -169 287 -209 0 -26 -42 -65 -69 -65 -33
0 -179 79 -230 124 -30 26 -61 46 -75 46 -32 0 -108 42 -181 100 -33 26 -83
59 -111 73 -69 35 -78 59 -44 115 11 18 28 32 39 32 11 0 59 -27 108 -59z
m-233 -175 c35 -24 86 -49 113 -55 33 -8 76 -32 129 -72 43 -32 117 -78 164
-101 99 -48 205 -111 238 -141 40 -37 24 -117 -24 -117 -34 0 -152 56 -250
117 -43 28 -124 74 -179 103 -171 90 -306 174 -328 204 l-20 29 41 38 c23 22
44 39 47 39 2 0 34 -20 69 -44z m1199 -33 c7 -75 -14 -142 -52 -163 -12 -6
-37 -41 -55 -79 -19 -37 -51 -89 -71 -115 -44 -58 -55 -85 -55 -138 0 -36 -6
-46 -58 -97 -45 -43 -61 -66 -70 -102 -10 -39 -17 -48 -50 -63 -35 -16 -42
-16 -75 -2 -36 15 -50 47 -27 61 5 3 26 36 46 73 21 37 56 96 79 132 24 36 52
87 64 113 11 27 35 66 52 88 17 22 37 60 45 84 7 25 24 60 37 78 14 17 39 60
55 93 33 65 73 103 108 104 19 0 22 -7 27 -67z m-1268 -227 c73 -40 170 -100
191 -117 19 -16 11 -55 -18 -86 -17 -18 -33 -23 -72 -23 -48 0 -51 2 -123 73
-69 69 -73 76 -73 118 0 40 13 69 30 69 3 0 32 -15 65 -34z m1433 18 c12 -8
22 -21 22 -28 0 -19 -77 -172 -111 -222 -15 -23 -40 -67 -54 -100 -14 -32 -43
-81 -64 -109 -21 -27 -55 -81 -74 -120 -39 -79 -85 -129 -109 -120 -26 10 -41
60 -34 108 7 45 19 66 93 156 23 28 51 77 63 108 12 32 36 83 55 113 18 30 51
92 74 137 22 44 46 83 53 86 26 11 64 7 86 -9z m202 -216 c26 -43 25 -57 -5
-109 -14 -24 -25 -56 -25 -70 0 -27 -51 -87 -104 -123 -36 -23 -66 -95 -66
-154 0 -53 -16 -81 -76 -135 -29 -26 -51 -37 -72 -37 -38 0 -52 22 -52 80 0
50 17 91 63 156 19 27 44 68 56 91 11 23 38 67 59 97 22 30 47 82 56 116 16
58 19 61 74 90 31 16 60 29 65 30 4 0 16 -15 27 -32z m-755 -574 c39 -21 99
-56 135 -79 36 -24 99 -55 140 -70 99 -35 110 -46 110 -109 0 -57 -5 -68 -38
-85 -21 -11 -33 -6 -120 52 -53 36 -133 83 -177 105 -91 45 -172 112 -181 148
-5 18 0 32 17 50 12 13 27 24 34 24 6 0 42 -16 80 -36z m8 -308 c45 -24 98
-47 117 -51 51 -10 92 -39 134 -92 40 -51 42 -61 23 -87 -10 -13 -28 -18 -73
-19 -71 -2 -105 16 -247 128 -99 78 -124 117 -97 150 21 25 58 17 143 -29z
m67 -357 c13 -23 13 -79 0 -79 -22 0 -80 35 -80 49 0 22 40 60 56 54 8 -3 19
-14 24 -24z"/>
</g>
</svg>
