<?xml version="1.0" encoding="utf-8"?>
<!-- Generator: Adobe Illustrator 19.2.1, SVG Export Plug-In . SVG Version: 6.00 Build 0)  -->
<!DOCTYPE svg PUBLIC "-//W3C//DTD SVG 1.1//EN" "http://www.w3.org/Graphics/SVG/1.1/DTD/svg11.dtd">
<svg version="1.1" id="Layer_1" xmlns="http://www.w3.org/2000/svg" xmlns:xlink="http://www.w3.org/1999/xlink" x="0px" y="0px"
	 width="737.662px" height="33.041px" viewBox="0 0 737.662 33.041" enable-background="new 0 0 737.662 33.041"
	 xml:space="preserve">
<g id="_x23_12_1_">
	<g id="_x23_1">
	</g>
</g>
<g id="Specks_5">
</g>
<g id="specks_1">
	<g id="_x23_8">
		<g id="_x23_11">
			<g id="_x23_2">
				<g id="Specks_2">
				</g>
			</g>
		</g>
	</g>
</g>
<g>
	<path fill="#454445" d="M354.368,10.498c-0.112-1.284,0.541-2.349,0.469-3.526c-0.013-0.222,0.279-0.504,0.491-0.688
		c0.373-0.323,0.857-0.537,1.174-0.901c0.271-0.311,0.337-0.791,0.559-1.156c0.185-0.303,0.41-0.614,0.796-0.711
		c0.458-0.115,0.828-0.437,1.001-0.802c0.67-1.413,2.235-1.447,3.307-2.229c0.194-0.142,0.572-0.021,0.864-0.04
		c0.432-0.029,0.976,0.079,1.274-0.14c0.964-0.709,1.63-0.015,2.362,0.369c0.25,0.131,0.435,0.388,0.645,0.591
		c0.716,0.692,1.561,0.997,2.564,0.944c0.499-0.027,1.095-0.089,1.488,0.139c0.983,0.569,1.99,0.782,3.106,0.727
		c0.539-0.026,1.466,0.857,1.445,1.428c-0.057,1.561,0.686,2.756,1.581,3.919c0.26,0.337,0.445,0.739,0.622,1.13
		c0.439,0.967,1.13,1.656,2.121,2.051c0.193,0.077,0.321,0.202,0.557,0.04c0.867-0.596,1.488,0.153,2.163,0.472
		c0.465,0.219,0.559,0.724,0.207,1.068c-0.452,0.441-0.531,0.95-0.673,1.535c-0.273,1.127-0.921,2.154-1.931,2.765
		c-0.576,0.348-1.019,0.804-1.523,1.209c-0.378,0.304-0.481,0.7-0.469,1.165c0.025,1.006-0.168,2.024,0.405,2.977
		c0.172,0.285,0.027,0.691-0.242,1.004c-0.658,0.768-1.261,1.585-1.927,2.345c-0.445,0.507-0.665,1.101-0.86,1.72
		c-0.064,0.203-0.055,0.476-0.188,0.601c-0.808,0.758-1.323,1.695-1.775,2.686c-0.082,0.18-0.328,0.417-0.487,0.41
		c-0.831-0.039-1.287,0.59-1.88,0.972c-0.85,0.547-1.794,0.505-2.734,0.413c-0.189-0.019-0.424-0.177-0.527-0.341
		c-0.34-0.539-0.8-1.036-0.772-1.74c0.018-0.458-0.099-0.842-0.446-1.182c-0.65-0.639-0.894-1.434-0.942-2.352
		c-0.028-0.548-0.311-1.111-0.529-1.611c-0.381-0.876-0.38-1.643-0.042-2.497c0.304-0.768,0.25-1.518-0.152-2.292
		c-0.624-1.201-1.197-2.433-1.459-3.784c-0.066-0.341-0.279-0.655-0.435-0.977c-0.285-0.587-0.744-0.852-1.408-0.805
		c-0.644,0.045-1.244,0.046-1.889,0.352c-1.057,0.501-2.094-0.19-3.108-0.479c-0.774-0.22-1.489-0.709-1.858-1.428
		C354.767,12.775,354.026,11.716,354.368,10.498z M367.579,13.373c-0.043-0.409,0.032-0.775-0.482-1.081
		c-0.86-0.512-1.681-1.087-2.602-1.499c-0.852-0.382-1.647-0.848-2.414-1.399c-0.459-0.33-0.89-0.844-1.421-0.952
		c-0.961-0.195-1.741-0.634-2.463-1.248c-0.183-0.156-0.423-0.166-0.594-0.017c-0.327,0.286-0.62,0.611-0.919,0.928
		c-0.016,0.017,0.034,0.123,0.076,0.166c0.253,0.263,0.474,0.582,0.776,0.767c1.096,0.671,2.204,1.326,3.337,1.931
		c0.945,0.504,1.918,0.928,2.804,1.567c0.862,0.621,1.879,1.033,2.844,1.502C367.046,14.293,367.562,13.944,367.579,13.373z
		 M374.617,8.374c0-0.378-0.009-0.597,0.002-0.815c0.013-0.266-0.146-0.403-0.366-0.448c-0.126-0.026-0.313,0.001-0.4,0.082
		c-0.319,0.295-0.727,0.574-0.883,0.95c-0.339,0.811-0.773,1.539-1.349,2.193c0.058,1.053-0.898,1.595-1.241,2.454
		c-0.317,0.794-0.741,1.527-1.267,2.233c-0.544,0.73-0.774,1.688-1.457,2.365c-0.071,0.07-0.058,0.296-0.002,0.408
		c0.13,0.256,1.052,0.568,1.275,0.424c0.333-0.215,0.768-0.228,0.877-0.822c0.175-0.953,0.271-0.934,1.279-1.817
		c0.286-0.251,0.488-0.54,0.44-0.943c-0.084-0.705,0.265-1.317,0.67-1.766c0.455-0.504,0.689-1.098,1.002-1.655
		c0.176-0.314,0.287-0.671,0.579-0.892C374.486,9.785,374.759,9.086,374.617,8.374z M360.361,4.461
		c-0.06,0.042-0.121,0.081-0.179,0.125c-0.708,0.536-0.78,1.493-0.027,1.762c1.635,0.583,2.595,2.328,4.451,2.492
		c0.184,0.016,0.382,0.222,0.518,0.386c0.674,0.813,1.671,1.102,2.543,1.593c0.122,0.069,0.257,0.128,0.393,0.156
		c0.482,0.1,0.843-0.094,1.128-0.478c0.216-0.292,0.15-0.578-0.205-0.947c-0.709-0.738-1.604-1.183-2.486-1.666
		c-1.94-1.064-4.017-1.898-5.724-3.362C360.684,4.445,360.5,4.479,360.361,4.461z M374.156,20.993c0,0.157,0,0.23,0,0.303
		c-0.002,0.299,0.03,0.61,0.371,0.69c0.274,0.064,0.585,0.102,0.832-0.113c0.274-0.239,0.532-0.497,0.807-0.736
		c0.468-0.406,0.734-0.889,0.659-1.532c-0.025-0.215-0.058-0.469,0.03-0.649c0.266-0.547,0.314-1.206,1.067-1.489
		c0.428-0.16,0.717-0.692,1.068-1.056c-0.067-0.781,0.452-1.338,0.758-1.976c0.04-0.082-0.374-1.051-0.492-1.102
		c-0.199-0.087-0.39-0.107-0.598,0.047c-0.455,0.336-1.206,0.395-1.335,1.021c-0.181,0.878-0.541,1.602-1.108,2.289
		c-0.589,0.712-0.804,1.655-1.437,2.382C374.326,19.592,374.044,20.309,374.156,20.993z M371.069,19.154
		c0.038,0.111,0.112,0.384,0.225,0.64c0.117,0.264,0.519,0.384,0.681,0.217c0.346-0.359,0.714-0.662,0.929-1.173
		c0.33-0.78,0.759-1.562,1.317-2.191c0.599-0.675,0.683-1.575,1.196-2.24c0.713-0.924,1.058-2.027,1.643-3.006
		c0.178-0.298-0.047-0.408-0.178-0.52c-0.567-0.483-1.321-0.389-1.661,0.233c-0.445,0.813-0.769,1.7-1.277,2.468
		c-0.323,0.487-0.572,0.921-0.735,1.507c-0.178,0.643-0.611,1.275-1.143,1.803C371.508,17.443,371.081,18.128,371.069,19.154z
		 M363.453,2.253c-0.175,0.118-0.342,0.302-0.541,0.349c-0.417,0.098-0.62,0.306-0.633,0.743c-0.013,0.432,0.253,0.673,0.556,0.871
		c0.172,0.112,0.413,0.109,0.608,0.192c0.977,0.415,2.109,0.539,2.805,1.483c0.637,0.231,1.129,0.676,1.555,1.168
		c0.478,0.552,1.217,0.367,1.772,0.75c0.474,0.327,1.073,0.059,1.318-0.376c0.078-0.139-0.208-0.979-0.424-1.119
		c-0.724-0.467-1.409-1.094-2.206-1.323c-1.162-0.333-2.089-0.956-2.913-1.754c-0.44-0.426-1.01-0.56-1.475-0.9
		C363.774,2.262,363.603,2.28,363.453,2.253z M374.623,24.789c-0.011-0.834-0.237-1.246-0.908-1.415
		c-0.988-0.248-1.906-0.66-2.691-1.265c-0.698-0.538-1.514-0.811-2.24-1.269c-0.355-0.224-0.736-0.044-1.068,0.424
		c-0.212,0.299-0.066,0.531,0.13,0.764c0.565,0.671,1.21,1.244,2.022,1.596c1.256,0.545,2.395,1.274,3.467,2.121
		c0.382,0.301,1.056,0.05,1.209-0.44C374.607,25.102,374.61,24.881,374.623,24.789z M372.288,28.622
		c0.217-0.011,0.363-0.017,0.509-0.025c0.377-0.02,0.71-0.708,0.445-1.007c-0.611-0.69-1.086-1.503-2.182-1.663
		c-0.676-0.098-1.298-0.577-1.941-0.891c-0.256-0.124-0.493-0.313-0.761-0.376c-0.182-0.043-0.434,0.034-0.599,0.143
		c-0.287,0.19-0.219,0.533-0.167,0.802c0.037,0.192,0.197,0.395,0.357,0.524c0.845,0.677,1.666,1.395,2.579,1.969
		C371.05,28.426,371.658,28.773,372.288,28.622z M356.548,11.303c0.006,0.377-0.029,0.748,0.263,1.04
		c0.467,0.467,0.939,0.928,1.389,1.411c0.412,0.443,0.931,0.374,1.433,0.32c0.442-0.048,0.852-0.561,0.91-1.091
		c0.05-0.456-0.271-0.556-0.627-0.725c-0.582-0.275-1.093-0.695-1.648-1.032c-0.367-0.224-0.754-0.414-1.137-0.611
		c-0.151-0.078-0.508,0.104-0.535,0.266C356.573,11.025,356.563,11.172,356.548,11.303z M370.666,30.753
		c-0.02-0.186,0.02-0.43-0.079-0.588c-0.143-0.23-0.385-0.55-0.586-0.55c-0.201,0-0.447,0.317-0.589,0.548
		c-0.096,0.156-0.087,0.422,0.14,0.549c0.242,0.136,0.495,0.253,0.746,0.371C370.64,31.242,370.571,30.924,370.666,30.753z"/>
	<g>
		<g>
			<g>
				<path fill="#454445" d="M30.672,14.061c1.046,0,2.218-0.057,3.112-0.271c2.042-0.488,3.893-0.318,5.761,0.069
					c0.23,0.048,0.494,0.049,0.726,0.004c4.434-0.863,10.562-0.79,13.404-0.376c2.92,0.426,8.592,0.071,12.888,0.119
					c1.792,0.02,3.56,0.084,5.208,0.459c1.427,0.325,2.742,0.077,4.063-0.199c0.633-0.133,1.367-0.26,2.041-0.246
					c3.918,0.082,7.86,0.118,11.732,0.364c1.45,0.092,2.662,0.128,4.051-0.062c0.985-0.135,2.227-0.2,3.158-0.051
					c2.734,0.436,5.344,0.848,8.165,0.096c0.447-0.119,1.351,0.086,2.031,0.163c0.667,0.074,1.476,0.334,1.95,0.239
					c2.571-0.513,4.741,0.338,7.205,0.341c3.757,0.003,5.105,0.612,11.27,0.137c6.165-0.475,7.513,0.161,11.271,0.22
					c2.163,0.034,4.25,0.111,6.263,0.531c0.937,0.195,2.068,0.267,3.119,0.28c5.006,0.063,10.014,0.107,15.022,0.112
					c1.4,0.001,2.899-0.041,4.178-0.264c1.71-0.298,3.383-0.426,5.2-0.429c4.654-0.008,9.308-0.059,13.96-0.124
					c1.415-0.02,2.898-0.042,4.217-0.239c1.766-0.264,3.343-0.396,5.126-0.003c2.341,0.516,5.034,0.567,7.327,0.177
					c3.496-0.594,5.594,0.167,10.578-0.545c4.985-0.713,10.693,0.064,16.039,0.104c6.468,0.049,15.001,0.926,19.405,0.148
					c4.404-0.778,8.814,0.057,13.221,0.084c4.538,0.028,9.076,0.055,13.614,0.089c1.469,0.011,2.87-0.07,4.09-0.439
					c0.648-0.196,1.301-0.349,2.014-0.203c5.092,1.039,10.57,0.529,15.854,0.772c3.896,0.179,7.861,0.055,11.795,0.082
					c1.453,0.01,2.793-0.139,4.17-0.344c4.52-0.673,10.724-0.305,12.597-0.274c3.075,0.051,3.927,0.519,3.927,1.894
					c0,0.806-2.234,1.519-5.288,1.697c-2.866,0.167-6.704-0.173-9.855,0.552c-0.447,0.103-0.943,0.159-1.446,0.163
					c-3.289,0.025-6.578,0.049-9.868,0.076c-2.872,0.024-5.743,0.052-8.288-0.697c-4.227-0.186-8.501-0.706-12.592,0.255
					c-1.345,0.316-2.757,0.323-4.174,0.314c-6.087-0.034-10.035,0.768-18.261-0.14s-17.196,0.98-22.932-0.183
					c-5.736-1.163-13.351-0.104-20.027-0.152c-3.576-0.026-7.113-0.012-10.521,0.677c-1.199,0.242-1.73,0.403-4.233,0.097
					c-2.503-0.306-4.034,0.008-6.052,0.011c-2.302,0.004-3.078,0.55-6.906,0.012s-2.802-0.319-7.842,0.009s-5.457,0.002-8.185,0
					c-1.815-0.001-3.506,0.076-5.183,0.434c-0.917,0.196-2.069,0.244-3.113,0.24c-4.983-0.024-10.046,0.219-14.78-0.768
					c-2.855-0.083-5.708-0.198-8.566-0.241c-2.995-0.045-4.13,0.428-8.987-0.1c-4.856-0.528-5.457-0.057-8.184-0.109
					c-2.839-0.054-5.705-0.078-8.385-0.678c-0.875-0.196-2.281-0.247-3.139-0.07c-2.204,0.456-4.049,0.021-6.066-0.195
					c-1.366-0.146-2.85-0.084-4.281-0.092c-4.201-0.023-7.188-0.366-12.603-0.063c-5.415,0.303-6.624-0.462-11.666-0.058
					c-5.042,0.403-6.547,0.221-10.088-0.063s-5.677-0.644-8.95-0.11s-6.191-0.094-9.288-0.118c-2.131-0.017-4.27,0.025-6.299,0.455
					c-0.926,0.197-2.056,0.228-3.107,0.276c-3.511,0.162-12.413,0.3-17.481,0.911c-7.001,0.844-16.88,0.04-18.611-0.161
					s-2.666-0.4-3.679-0.872c-1.493-0.695-1.97-1.943-0.967-2.638c1.027-0.711,2.481-1.152,4.4-1.169
					c2.144-0.019,4.291,0.029,6.437,0.046c1.963,0.016,3.926,0.03,5.89,0.044c0.249,0.002,0.508,0.001,0.757-0.003
					C19.327,14.045,26.773,14.06,30.672,14.061z"/>
			</g>
		</g>
		<g>
			<g>
				<path fill="#454445" d="M437.912,14.061c1.046,0,2.218-0.057,3.112-0.271c2.042-0.488,3.894-0.318,5.761,0.069
					c0.23,0.048,0.494,0.049,0.726,0.004c4.434-0.863,10.562-0.79,13.404-0.376c2.92,0.426,8.592,0.071,12.889,0.119
					c1.792,0.02,3.559,0.084,5.208,0.459c1.427,0.325,2.742,0.077,4.063-0.199c0.633-0.133,1.367-0.26,2.041-0.246
					c3.918,0.082,7.86,0.118,11.732,0.364c1.45,0.092,2.662,0.128,4.051-0.062c0.985-0.135,2.227-0.2,3.158-0.051
					c2.734,0.436,5.344,0.848,8.164,0.096c0.447-0.119,1.351,0.086,2.031,0.163c0.667,0.074,1.476,0.334,1.95,0.239
					c2.571-0.513,4.741,0.338,7.205,0.341c3.757,0.003,5.105,0.612,11.27,0.137c6.165-0.475,7.513,0.161,11.271,0.22
					c2.163,0.034,4.25,0.111,6.263,0.531c0.937,0.195,2.068,0.267,3.119,0.28c5.006,0.063,10.014,0.107,15.022,0.112
					c1.4,0.001,2.899-0.041,4.178-0.264c1.71-0.298,3.383-0.426,5.2-0.429c4.654-0.008,9.308-0.059,13.96-0.124
					c1.415-0.02,2.898-0.042,4.217-0.239c1.766-0.264,3.343-0.396,5.126-0.003c2.341,0.516,5.034,0.567,7.328,0.177
					c3.496-0.594,5.594,0.167,10.578-0.545s10.693,0.064,16.039,0.104c6.468,0.049,15.001,0.926,19.405,0.148
					c4.404-0.778,8.814,0.057,13.221,0.084c4.538,0.028,9.076,0.055,13.614,0.089c1.469,0.011,2.87-0.07,4.09-0.439
					c0.648-0.196,1.301-0.349,2.014-0.203c5.092,1.039,10.57,0.529,15.854,0.772c3.896,0.179,7.861,0.055,11.795,0.082
					c1.453,0.01,2.793-0.139,4.17-0.344c4.52-0.673,10.724-0.305,12.597-0.274c3.075,0.051,3.927,0.519,3.927,1.894
					c0,0.806-2.234,1.519-5.288,1.697c-2.866,0.167-6.704-0.173-9.855,0.552c-0.447,0.103-0.943,0.159-1.446,0.163
					c-3.289,0.025-6.579,0.049-9.868,0.076c-2.872,0.024-5.743,0.052-8.288-0.697c-4.227-0.186-8.501-0.706-12.592,0.255
					c-1.345,0.316-2.757,0.323-4.175,0.314c-6.087-0.034-10.035,0.768-18.261-0.14c-8.226-0.908-17.196,0.98-22.932-0.183
					c-5.736-1.163-13.351-0.104-20.027-0.152c-3.576-0.026-7.113-0.012-10.521,0.677c-1.198,0.242-1.73,0.403-4.233,0.097
					c-2.504-0.306-4.034,0.008-6.052,0.011c-2.302,0.004-3.078,0.55-6.906,0.012c-3.827-0.538-2.802-0.319-7.842,0.009
					c-5.04,0.328-5.457,0.002-8.186,0c-1.815-0.001-3.506,0.076-5.183,0.434c-0.917,0.196-2.069,0.244-3.113,0.24
					c-4.983-0.024-10.046,0.219-14.78-0.768c-2.855-0.083-5.708-0.198-8.566-0.241c-2.995-0.045-4.13,0.428-8.987-0.1
					c-4.856-0.528-5.458-0.057-8.184-0.109c-2.839-0.054-5.705-0.078-8.385-0.678c-0.875-0.196-2.282-0.247-3.139-0.07
					c-2.204,0.456-4.049,0.021-6.066-0.195c-1.366-0.146-2.85-0.084-4.281-0.092c-4.201-0.023-7.188-0.366-12.603-0.063
					c-5.415,0.303-6.624-0.462-11.666-0.058c-5.043,0.403-6.547,0.221-10.088-0.063c-3.542-0.284-5.677-0.644-8.95-0.11
					s-6.191-0.094-9.288-0.118c-2.131-0.017-4.27,0.025-6.299,0.455c-0.926,0.197-2.056,0.228-3.107,0.276
					c-3.511,0.162-12.413,0.3-17.481,0.911c-7,0.844-16.88,0.04-18.611-0.161c-1.73-0.201-2.666-0.4-3.679-0.872
					c-1.493-0.695-1.97-1.943-0.967-2.638c1.027-0.711,2.481-1.152,4.399-1.169c2.144-0.019,4.291,0.029,6.437,0.046
					c1.963,0.016,3.926,0.03,5.89,0.044c0.249,0.002,0.508,0.001,0.757-0.003C426.566,14.045,434.013,14.06,437.912,14.061z"/>
			</g>
		</g>
	</g>
</g>
<g id="New_Symbol">
	<g id="_x23_12">
	</g>
</g>
</svg>
