<svg version="1.1" id="Layer_1" xmlns="http://www.w3.org/2000/svg" xmlns:xlink="http://www.w3.org/1999/xlink" x="0px" y="0px"
	 width="692.599px" height="6.663px" viewBox="0 0 692.599 6.663" enable-background="new 0 0 692.599 6.663" xml:space="preserve">
<g id="_x23_12_1_">
	<g id="_x23_1">
	</g>
</g>
<g id="Specks_5">
</g>
<g id="specks_1">
	<g id="_x23_8">
		<g id="_x23_11">
			<g id="_x23_2">
				<g id="Specks_2">
				</g>
			</g>
		</g>
	</g>
</g>
<g>
	<g>
		<g>
			<path fill="#302C29" d="M64.293,0.872c2.192,0,4.648-0.057,6.524-0.271c4.281-0.488,8.161-0.319,12.076,0.069
				c0.481,0.048,1.035,0.049,1.522,0.004c9.293-0.863,22.139-0.79,28.095-0.376c6.121,0.426,18.011,0.071,27.016,0.119
				c3.755,0.02,7.461,0.084,10.917,0.459c2.991,0.325,5.748,0.077,8.516-0.199c1.326-0.133,2.866-0.261,4.277-0.246
				c8.213,0.082,16.476,0.118,24.591,0.364c3.039,0.092,5.58,0.128,8.491-0.062c2.065-0.135,4.668-0.2,6.62-0.051
				c5.73,0.436,11.202,0.848,17.114,0.096c0.938-0.119,2.831,0.086,4.258,0.163c1.397,0.075,3.094,0.334,4.087,0.239
				c5.389-0.513,9.937,0.338,15.102,0.341c7.875,0.003,10.7,0.612,23.623,0.137c12.922-0.475,15.748,0.161,23.624,0.22
				c4.534,0.034,8.908,0.111,13.127,0.531c1.963,0.195,4.335,0.267,6.537,0.28C320.902,2.751,331.4,2.795,341.896,2.8
				c2.935,0.001,6.077-0.041,8.757-0.264c3.585-0.298,7.091-0.425,10.9-0.429c9.755-0.008,19.511-0.059,29.262-0.124
				c2.967-0.02,6.073-0.042,8.839-0.239c3.702-0.264,7.008-0.396,10.744-0.003c4.908,0.516,10.551,0.567,15.359,0.177
				c7.329-0.593,11.725,0.168,22.174-0.545c10.448-0.713,22.413,0.064,33.619,0.104c13.558,0.049,31.443,0.926,40.674,0.148
				c9.231-0.778,18.475,0.057,27.712,0.084c9.512,0.027,19.025,0.055,28.536,0.089c3.08,0.011,6.015-0.07,8.573-0.44
				c1.358-0.196,2.726-0.349,4.221-0.203c10.673,1.039,22.156,0.529,33.231,0.772c8.167,0.179,16.477,0.055,24.723,0.082
				c3.045,0.01,5.854-0.14,8.741-0.345c9.474-0.673,22.479-0.305,26.405-0.274c6.446,0.05,8.231,0.519,8.231,1.894
				c0,0.806-4.682,1.519-11.084,1.697c-6.008,0.167-14.052-0.172-20.656,0.553c-0.936,0.103-1.977,0.159-3.03,0.163
				c-6.895,0.025-13.789,0.049-20.684,0.077c-6.019,0.024-12.039,0.052-17.372-0.697c-8.86-0.186-17.819-0.705-26.395,0.255
				c-2.82,0.316-5.779,0.322-8.75,0.314c-12.76-0.035-21.035,0.767-38.277-0.141s-36.044,0.981-48.067-0.182
				c-12.023-1.163-27.985-0.104-41.978-0.152c-7.495-0.026-14.91-0.012-22.054,0.677c-2.512,0.242-3.626,0.403-8.874,0.097
				c-5.247-0.306-8.456,0.008-12.685,0.012c-4.825,0.004-6.453,0.55-14.475,0.012s-5.874-0.319-16.437,0.009
				c-10.563,0.328-11.438,0.002-17.157,0c-3.804-0.001-7.349,0.076-10.864,0.434c-1.922,0.196-4.337,0.244-6.524,0.239
				c-10.444-0.024-21.057,0.219-30.98-0.768c-5.985-0.083-11.965-0.198-17.956-0.241c-6.277-0.045-8.658,0.428-18.837-0.1
				c-10.179-0.528-11.439-0.057-17.155-0.109c-5.95-0.054-11.959-0.078-17.576-0.679c-1.835-0.196-4.782-0.247-6.579-0.069
				c-4.621,0.456-8.487,0.021-12.716-0.195c-2.863-0.146-5.973-0.084-8.974-0.092c-8.805-0.023-15.067-0.366-26.417-0.063
				s-13.884-0.462-24.454-0.058c-10.57,0.403-13.723,0.221-21.146-0.063s-11.899-0.644-18.759-0.11
				c-6.86,0.534-12.978-0.094-19.469-0.118c-4.466-0.017-8.949,0.025-13.203,0.455c-1.941,0.197-4.31,0.228-6.513,0.276
				c-7.36,0.162-26.019,0.3-36.643,0.91c-14.674,0.844-35.383,0.04-39.01-0.161s-5.588-0.4-7.711-0.871
				c-3.13-0.695-4.13-1.943-2.027-2.638C3.262,1.248,6.31,0.807,10.331,0.79c4.495-0.019,8.995,0.029,13.493,0.046
				c4.115,0.016,8.23,0.03,12.345,0.044c0.521,0.002,1.065,0.001,1.586-0.003C40.51,0.856,56.12,0.871,64.293,0.872z"/>
		</g>
	</g>
</g>
<g id="New_Symbol">
	<g id="_x23_12">
	</g>
</g>
</svg>
