<svg id="Layer_1" data-name="Layer 1" xmlns="http://www.w3.org/2000/svg" viewBox="0 0 55.32 40.33"><defs><style>.cls-1{fill:#72c7ac;fill-rule:evenodd;}</style></defs><title>email_icon</title><path class="cls-1" d="M312.55,3723.27a4.61,4.61,0,0,0,4.61,4.61h46.1a4.61,4.61,0,0,0,4.61-4.61v-31.12a4.61,4.61,0,0,0-4.61-4.61h-46.1a4.61,4.61,0,0,0-4.61,4.61v31.12Zm17-15.52L319,3697.13a2.24,2.24,0,0,1,3.17-3.17L339,3710.81a1.77,1.77,0,0,0,2.47,0L358.28,3694a2.24,2.24,0,0,1,3.17,3.17l-10.56,10.61,10.56,10.54a2.24,2.24,0,1,1-3.17,3.17l-10.55-10.53-3.9,4a5.2,5.2,0,0,1-3.63,1.48,5.15,5.15,0,0,1-3.65-1.51c-0.61-.6-3.88-3.92-3.88-3.92l-10.53,10.53a2.24,2.24,0,1,1-3.17-3.17Z" transform="translate(-312.55 -3687.55)"/></svg>